<?xml version="1.0" encoding="UTF-8"?>
<!DOCTYPE svg PUBLIC "-//W3C//DTD SVG 1.1//EN" "http://www.w3.org/Graphics/SVG/1.1/DTD/svg11.dtd">
<svg xmlns="http://www.w3.org/2000/svg" version="1.1" width="56px" height="56px" style="shape-rendering:geometricPrecision; text-rendering:geometricPrecision; image-rendering:optimizeQuality; fill-rule:evenodd; clip-rule:evenodd" xmlns:xlink="http://www.w3.org/1999/xlink">
<g><path style="opacity:1" fill="#fafbfb" d="M -0.5,-0.5 C 18.1667,-0.5 36.8333,-0.5 55.5,-0.5C 55.5,18.1667 55.5,36.8333 55.5,55.5C 36.8333,55.5 18.1667,55.5 -0.5,55.5C -0.5,36.8333 -0.5,18.1667 -0.5,-0.5 Z"/></g>
<g><path style="opacity:1" fill="#233342" d="M 27.5,3.5 C 43.0145,3.18673 51.3479,10.6867 52.5,26C 53.0545,43.2784 44.7212,51.7784 27.5,51.5C 27.5,49.8333 27.5,48.1667 27.5,46.5C 25.396,46.7989 23.396,46.4656 21.5,45.5C 26.5,44.8333 31.5,44.1667 36.5,43.5C 38.1836,42.8503 39.5169,41.8503 40.5,40.5C 46.0425,33.3705 46.8758,25.7039 43,17.5C 41.786,15.9512 40.286,14.7845 38.5,14C 33.5805,12.7497 28.5805,12.2497 23.5,12.5C 24.5676,11.5655 25.901,11.2322 27.5,11.5C 27.5,8.83333 27.5,6.16667 27.5,3.5 Z"/></g>
<g><path style="opacity:1" fill="#e0d15d" d="M 19.5,13.5 C 22.1667,13.5 24.8333,13.5 27.5,13.5C 28.1867,19.5802 28.1867,25.5802 27.5,31.5C 26.8333,31.5 26.1667,31.5 25.5,31.5C 23.0314,30.6829 20.3647,30.1829 17.5,30C 16.1888,27.7265 16.1888,25.5598 17.5,23.5C 16.6794,29.1581 18.846,30.8248 24,28.5C 24.4955,26.5273 24.6621,24.5273 24.5,22.5C 25.1174,22.3893 25.6174,22.056 26,21.5C 26.4966,19.1902 26.6633,16.8568 26.5,14.5C 23.5,14.5 20.5,14.5 17.5,14.5C 17.1667,17.5 15.5,19.1667 12.5,19.5C 12.2865,21.1439 12.6198,22.6439 13.5,24C 11.6618,25.3252 10.6618,27.1585 10.5,29.5C 12.049,31.9017 12.7157,34.5683 12.5,37.5C 9.70437,32.9597 8.87104,27.9597 10,22.5C 11.0965,17.2351 14.2631,14.2351 19.5,13.5 Z"/></g>
<g><path style="opacity:1" fill="#1e2124" d="M 24.5,22.5 C 24.6621,24.5273 24.4955,26.5273 24,28.5C 18.846,30.8248 16.6794,29.1581 17.5,23.5C 19.4503,21.2472 21.7837,20.9139 24.5,22.5 Z"/></g>
<g><path style="opacity:1" fill="#f1dc48" d="M 24.5,22.5 C 21.7837,20.9139 19.4503,21.2472 17.5,23.5C 16.1888,25.5598 16.1888,27.7265 17.5,30C 20.3647,30.1829 23.0314,30.6829 25.5,31.5C 24.1667,31.5 22.8333,31.5 21.5,31.5C 20.3619,36.0558 22.3619,38.3891 27.5,38.5C 27.5,39.8333 27.5,41.1667 27.5,42.5C 26.1667,42.5 24.8333,42.5 23.5,42.5C 18.9554,42.5497 15.2887,40.883 12.5,37.5C 12.7157,34.5683 12.049,31.9017 10.5,29.5C 10.6618,27.1585 11.6618,25.3252 13.5,24C 12.6198,22.6439 12.2865,21.1439 12.5,19.5C 15.5,19.1667 17.1667,17.5 17.5,14.5C 20.5,14.5 23.5,14.5 26.5,14.5C 26.6633,16.8568 26.4966,19.1902 26,21.5C 25.6174,22.056 25.1174,22.3893 24.5,22.5 Z"/></g>
<g><path style="opacity:1" fill="#e8de7b" d="M 19.5,13.5 C 20.5676,12.5655 21.901,12.2322 23.5,12.5C 28.5805,12.2497 33.5805,12.7497 38.5,14C 40.286,14.7845 41.786,15.9512 43,17.5C 46.8758,25.7039 46.0425,33.3705 40.5,40.5C 37.0787,42.2411 33.412,43.2411 29.5,43.5C 27.3035,43.4954 25.3035,43.162 23.5,42.5C 24.8333,42.5 26.1667,42.5 27.5,42.5C 27.5,41.1667 27.5,39.8333 27.5,38.5C 22.3619,38.3891 20.3619,36.0558 21.5,31.5C 21.2729,33.9328 22.2729,35.5994 24.5,36.5C 27.0118,37.8674 29.3452,37.534 31.5,35.5C 33.1042,34.713 33.7709,33.3797 33.5,31.5C 31.5,31.5 29.5,31.5 27.5,31.5C 28.1867,25.5802 28.1867,19.5802 27.5,13.5C 24.8333,13.5 22.1667,13.5 19.5,13.5 Z"/></g>
<g><path style="opacity:1" fill="#232a45" d="M 31.5,35.5 C 29.3452,37.534 27.0118,37.8674 24.5,36.5C 25.1522,35.2749 26.3189,34.6083 28,34.5C 29.3847,34.5143 30.5514,34.8476 31.5,35.5 Z"/></g>
<g><path style="opacity:1" fill="#2e3228" d="M 21.5,31.5 C 22.8333,31.5 24.1667,31.5 25.5,31.5C 26.1667,31.5 26.8333,31.5 27.5,31.5C 29.5,31.5 31.5,31.5 33.5,31.5C 33.7709,33.3797 33.1042,34.713 31.5,35.5C 30.5514,34.8476 29.3847,34.5143 28,34.5C 26.3189,34.6083 25.1522,35.2749 24.5,36.5C 22.2729,35.5994 21.2729,33.9328 21.5,31.5 Z"/></g>
<g><path style="opacity:1" fill="#283545" d="M 36.5,28.5 C 34.8333,29.8333 33.1667,29.8333 31.5,28.5C 31.5,26.8333 31.5,25.1667 31.5,23.5C 33.1667,23.5 34.8333,23.5 36.5,23.5C 36.5,25.1667 36.5,26.8333 36.5,28.5 Z"/></g>
<g><path style="opacity:1" fill="#3e402b" d="M 36.5,28.5 C 36.5,26.8333 36.5,25.1667 36.5,23.5C 34.8333,23.5 33.1667,23.5 31.5,23.5C 31.5,25.1667 31.5,26.8333 31.5,28.5C 28.9952,22.5426 30.8286,20.5426 37,22.5C 37.7891,24.7116 37.6225,26.7116 36.5,28.5 Z"/></g>
<g><path style="opacity:1" fill="#131d25" d="M 27.5,3.5 C 27.5,6.16667 27.5,8.83333 27.5,11.5C 25.901,11.2322 24.5676,11.5655 23.5,12.5C 21.901,12.2322 20.5676,12.5655 19.5,13.5C 14.2631,14.2351 11.0965,17.2351 10,22.5C 8.87104,27.9597 9.70437,32.9597 12.5,37.5C 15.2887,40.883 18.9554,42.5497 23.5,42.5C 25.3035,43.162 27.3035,43.4954 29.5,43.5C 33.412,43.2411 37.0787,42.2411 40.5,40.5C 39.5169,41.8503 38.1836,42.8503 36.5,43.5C 31.5,44.1667 26.5,44.8333 21.5,45.5C 23.396,46.4656 25.396,46.7989 27.5,46.5C 27.5,48.1667 27.5,49.8333 27.5,51.5C 10.0361,51.7017 1.70281,43.0351 2.5,25.5C 3.88039,10.4608 12.2137,3.12746 27.5,3.5 Z"/></g>
</svg>
